<svg width="96" height="96" viewBox="0 0 96 96" fill="none" xmlns="http://www.w3.org/2000/svg">
  <defs>
    <linearGradient id="shieldGradient" x1="14" y1="10" x2="82" y2="88" gradientUnits="userSpaceOnUse">
      <stop stop-color="#0A6173" />
      <stop offset="1" stop-color="#064451" />
    </linearGradient>
    <linearGradient id="lockGradient" x1="36" y1="38" x2="60" y2="66" gradientUnits="userSpaceOnUse">
      <stop stop-color="#FF7A68" />
      <stop offset="1" stop-color="#E95341" />
    </linearGradient>
  </defs>

  <path d="M48 6L14 20V42C14 61.5 27 79.8 48 90C69 79.8 82 61.5 82 42V20L48 6Z" fill="url(#shieldGradient)" />
  <path d="M48 14L22 25.5V42.2C22 56.4 30.9 69.1 48 77.8C65.1 69.1 74 56.4 74 42.2V25.5L48 14Z" fill="#FFFFFF" fill-opacity="0.11" />

  <circle cx="48" cy="48" r="24" fill="#FFFFFF" fill-opacity="0.95" />

  <path d="M40 44V39.8C40 35.5 43.4 32 47.7 32H48.3C52.6 32 56 35.5 56 39.8V44" stroke="#0A6173" stroke-width="4" stroke-linecap="round" />
  <rect x="36" y="43" width="24" height="20" rx="6" fill="url(#lockGradient)" />
  <circle cx="48" cy="53" r="3" fill="#FFFFFF" />
  <path d="M48 56V59" stroke="#FFFFFF" stroke-width="2.5" stroke-linecap="round" />

  <path d="M22 28H30" stroke="#8AD4DF" stroke-width="2.5" stroke-linecap="round" />
  <circle cx="34" cy="28" r="2.3" fill="#8AD4DF" />
  <path d="M66 28H74" stroke="#8AD4DF" stroke-width="2.5" stroke-linecap="round" />
  <circle cx="62" cy="28" r="2.3" fill="#8AD4DF" />
  <path d="M21 40H27" stroke="#8AD4DF" stroke-width="2.5" stroke-linecap="round" />
  <circle cx="30.5" cy="40" r="2.1" fill="#8AD4DF" />
  <path d="M69 40H75" stroke="#8AD4DF" stroke-width="2.5" stroke-linecap="round" />
  <circle cx="65.5" cy="40" r="2.1" fill="#8AD4DF" />
</svg>
